<?xml version="1.0" encoding="UTF-8" standalone="no"?>
<!-- Created with Inkscape (http://www.inkscape.org/) -->

<svg
   xmlns:dc="http://purl.org/dc/elements/1.1/"
   xmlns:cc="http://creativecommons.org/ns#"
   xmlns:rdf="http://www.w3.org/1999/02/22-rdf-syntax-ns#"
   xmlns:svg="http://www.w3.org/2000/svg"
   xmlns="http://www.w3.org/2000/svg"
   xmlns:sodipodi="http://sodipodi.sourceforge.net/DTD/sodipodi-0.dtd"
   xmlns:inkscape="http://www.inkscape.org/namespaces/inkscape"
   width="100"
   height="100"
   viewBox="0 0 18.52083 18.52083"
   version="1.1"
   id="svg4557"
   inkscape:version="0.92.2 2405546, 2018-03-11"
   sodipodi:docname="drawing-1.svg">
  <defs
     id="defs4551">
    <marker
       orient="auto"
       refY="0"
       refX="0"
       id="marker1159"
       style="overflow:visible">
      <path
         class="gKRKSdkq_0"
         id="path1157"
         d="M 0,0 5,-5 -12.5,0 5,5 Z"
         style="fill:#ffffff;fill-opacity:1;fill-rule:evenodd;stroke:#ffffff;stroke-width:1pt;stroke-opacity:1"
         transform="matrix(0.8,0,0,0.8,10,0)"
         inkscape:connector-curvature="0" />
    </marker>
    <marker
       orient="auto"
       refY="0"
       refX="0"
       id="Arrow1Lstart"
       style="overflow:visible">
      <path
         class="gKRKSdkq_1"
         id="path875"
         d="M 0,0 5,-5 -12.5,0 5,5 Z"
         style="fill:#ffffff;fill-opacity:1;fill-rule:evenodd;stroke:#ffffff;stroke-width:1pt;stroke-opacity:1"
         transform="matrix(0.8,0,0,0.8,10,0)"
         inkscape:connector-curvature="0" />
    </marker>
    <marker
       orient="auto"
       refY="0"
       refX="0"
       id="marker1159-9"
       style="overflow:visible">
      <path
         id="path1157-1"
         d="M 0,0 5,-5 -12.5,0 5,5 Z"
         style="fill:#ffffff;fill-opacity:1;fill-rule:evenodd;stroke:#ffffff;stroke-width:1pt;stroke-opacity:1"
         transform="matrix(0.8,0,0,0.8,10,0)"
         inkscape:connector-curvature="0" />
    </marker>
    <marker
       orient="auto"
       refY="0"
       refX="0"
       id="Arrow1Lstart-1"
       style="overflow:visible">
      <path
         id="path875-9"
         d="M 0,0 5,-5 -12.5,0 5,5 Z"
         style="fill:#ffffff;fill-opacity:1;fill-rule:evenodd;stroke:#ffffff;stroke-width:1pt;stroke-opacity:1"
         transform="matrix(0.8,0,0,0.8,10,0)"
         inkscape:connector-curvature="0" />
    </marker>
    <marker
       inkscape:isstock="true"
       style="overflow:visible"
       id="marker1159-3"
       refX="0"
       refY="0"
       orient="auto"
       inkscape:stockid="Arrow1Lstart">
      <path
         inkscape:connector-curvature="0"
         transform="matrix(0.8,0,0,0.8,10,0)"
         style="fill:#ffffff;fill-opacity:1;fill-rule:evenodd;stroke:#ffffff;stroke-width:1pt;stroke-opacity:1"
         d="M 0,0 5,-5 -12.5,0 5,5 Z"
         id="path1157-10" />
    </marker>
    <marker
       inkscape:isstock="true"
       style="overflow:visible"
       id="Arrow1Lstart-0"
       refX="0"
       refY="0"
       orient="auto"
       inkscape:stockid="Arrow1Lstart">
      <path
         inkscape:connector-curvature="0"
         transform="matrix(0.8,0,0,0.8,10,0)"
         style="fill:#ffffff;fill-opacity:1;fill-rule:evenodd;stroke:#ffffff;stroke-width:1pt;stroke-opacity:1"
         d="M 0,0 5,-5 -12.5,0 5,5 Z"
         id="path875-5" />
    </marker>
    <marker
       style="overflow:visible"
       id="marker1159-1"
       refX="0"
       refY="0"
       orient="auto">
      <path
         transform="matrix(0.8,0,0,0.8,10,0)"
         style="fill:#ffffff;fill-opacity:1;fill-rule:evenodd;stroke:#ffffff;stroke-width:1pt;stroke-opacity:1"
         d="M 0,0 5,-5 -12.5,0 5,5 Z"
         id="path1157-8"
         inkscape:connector-curvature="0" />
    </marker>
    <marker
       style="overflow:visible"
       id="Arrow1Lstart-01"
       refX="0"
       refY="0"
       orient="auto">
      <path
         transform="matrix(0.8,0,0,0.8,10,0)"
         style="fill:#ffffff;fill-opacity:1;fill-rule:evenodd;stroke:#ffffff;stroke-width:1pt;stroke-opacity:1"
         d="M 0,0 5,-5 -12.5,0 5,5 Z"
         id="path875-7"
         inkscape:connector-curvature="0" />
    </marker>
    <marker
       orient="auto"
       refY="0"
       refX="0"
       id="marker1159-8"
       style="overflow:visible">
      <path
         id="path1157-4"
         d="M 0,0 5,-5 -12.5,0 5,5 Z"
         style="fill:#ffffff;fill-opacity:1;fill-rule:evenodd;stroke:#ffffff;stroke-width:1pt;stroke-opacity:1"
         transform="matrix(0.8,0,0,0.8,10,0)"
         inkscape:connector-curvature="0" />
    </marker>
    <marker
       orient="auto"
       refY="0"
       refX="0"
       id="Arrow1Lstart-6"
       style="overflow:visible">
      <path
         id="path875-92"
         d="M 0,0 5,-5 -12.5,0 5,5 Z"
         style="fill:#ffffff;fill-opacity:1;fill-rule:evenodd;stroke:#ffffff;stroke-width:1pt;stroke-opacity:1"
         transform="matrix(0.8,0,0,0.8,10,0)"
         inkscape:connector-curvature="0" />
    </marker>
  </defs>
  <sodipodi:namedview
     id="base"
     pagecolor="#2d2d2d"
     bordercolor="#666666"
     borderopacity="1.0"
     inkscape:pageopacity="0"
     inkscape:pageshadow="2"
     inkscape:zoom="1.806013"
     inkscape:cx="28.45714"
     inkscape:cy="8.067157"
     inkscape:document-units="mm"
     inkscape:current-layer="layer1"
     showgrid="false"
     scale-x="0.7"
     units="px"
     inkscape:window-width="1362"
     inkscape:window-height="746"
     inkscape:window-x="0"
     inkscape:window-y="0"
     inkscape:window-maximized="0" />
  <metadata
     id="metadata4554">
    <rdf:RDF>
      <cc:Work
         rdf:about="">
        <dc:format>image/svg+xml</dc:format>
        <dc:type
           rdf:resource="http://purl.org/dc/dcmitype/StillImage" />
        <dc:title></dc:title>
      </cc:Work>
    </rdf:RDF>
  </metadata>
  <g
     inkscape:label="Layer 1"
     inkscape:groupmode="layer"
     id="layer1"
     transform="translate(0,-189.3792)">
    <path
       style="fill:#fefefe;stroke-width:0.0333078"
       d="m 8.631041,207.4825 c -1.830547,-0.1442 -3.56957,-0.8241 -4.979522,-1.9468 -0.155715,-0.124 -0.485735,-0.4289 -0.733371,-0.6773 -1.398133,-1.4034 -2.266541,-3.2017 -2.502265,-5.1817 -0.05485,-0.4606 -0.054645,-1.5927 3.579e-4,-2.0317 0.070718,-0.5649 0.2297752,-1.2916 0.3876598,-1.7714 1.0639873,-3.2334 3.8104803,-5.5444 7.1776583,-6.0394 0.585569,-0.086 1.920183,-0.094 2.460511,-0.014 1.62964,0.2399 3.05149,0.8377 4.29706,1.8065 0.37886,0.2947 1.01364,0.9118 1.34314,1.3056 1.02615,1.2266 1.73716,2.8173 1.95789,4.38 0.0207,0.1466 0.0518,0.3577 0.069,0.4691 0.0901,0.5822 0.008,1.8436 -0.17232,2.6618 -0.5957,2.6974 -2.34344,4.9403 -4.77587,6.1286 -1.10812,0.5414 -2.12852,0.8149 -3.412393,0.9146 -0.496751,0.039 -0.588399,0.039 -1.117482,-0.01 z m 1.474849,-0.9778 c 1.41245,-0.1578 2.73561,-0.6866 3.89966,-1.5585 0.41191,-0.3085 1.04544,-0.9228 1.38002,-1.3381 0.73045,-0.9065 1.23087,-1.9118 1.50229,-3.0176 0.16778,-0.6836 0.223,-1.1651 0.21746,-1.8964 -0.01,-1.2821 -0.23211,-2.2583 -0.76559,-3.3602 -0.4014,-0.8292 -0.85503,-1.4633 -1.52867,-2.1371 -1.20053,-1.2007 -2.67285,-1.9463 -4.4147,-2.236 -0.578843,-0.096 -1.738433,-0.1049 -2.314895,-0.017 -1.487474,0.2264 -2.905258,0.8528 -3.996942,1.7659 -1.6144,1.3503 -2.60385,3.2218 -2.800233,5.2966 -0.04868,0.514 -0.02408,1.3896 0.05292,1.8851 0.339027,2.1804 1.567232,4.0915 3.43009,5.3372 0.436949,0.2922 1.152633,0.6587 1.648741,0.8443 0.558874,0.2092 1.360218,0.3961 1.865916,0.4354 0.155344,0.012 0.288682,0.027 0.296315,0.035 0.03714,0.033 1.137896,0.01 1.527578,-0.038 z m -3.367512,-1.2724 c -0.03343,-0.01 -0.05419,-0.033 -0.04609,-0.054 0.008,-0.021 0.07874,-0.2152 0.157114,-0.4308 0.129638,-0.3567 0.148838,-0.3901 0.212659,-0.3706 0.0386,0.012 0.07346,0.024 0.07751,0.028 0.0138,0.011 -0.30708,0.8512 -0.323786,0.8476 -0.0092,0 -0.04397,-0.01 -0.07739,-0.019 z m 4.579392,-0.3894 c -0.0946,-0.2221 -0.17198,-0.4131 -0.17198,-0.4246 0,-0.011 0.0338,-0.03 0.0749,-0.04 0.0563,-0.015 0.14751,0.03 0.36638,0.1813 0.1603,0.1107 0.29145,0.1845 0.29145,0.1641 0,-0.02 -0.0454,-0.1437 -0.10087,-0.2741 -0.0985,-0.2315 -0.0962,-0.3239 0.007,-0.2843 0.0241,0.01 0.11709,0.1928 0.20655,0.4077 0.13172,0.3167 0.15387,0.3965 0.11654,0.4201 -0.0815,0.052 -0.12354,0.034 -0.40322,-0.171 -0.15112,-0.1107 -0.27968,-0.1866 -0.28568,-0.1686 -0.006,0.018 0.035,0.142 0.0911,0.2756 0.12002,0.2857 0.11949,0.2817 0.0409,0.3023 -0.0509,0.013 -0.0902,-0.052 -0.23315,-0.3878 z m -5.128875,0.1547 c -0.0638,-0.055 -0.09902,-0.2673 -0.104734,-0.6328 -0.002,-0.1369 -0.06691,-0.078 -0.19194,0.1748 -0.06798,0.1374 -0.131561,0.2496 -0.141283,0.2493 -0.0098,0 -0.04019,-0.015 -0.06764,-0.033 -0.04211,-0.027 -0.01871,-0.093 0.149885,-0.418 0.109914,-0.212 0.208646,-0.3915 0.219397,-0.3987 0.01075,-0.01 0.052,0.01 0.0916,0.037 0.05638,0.039 0.0721,0.084 0.07233,0.2068 3.58e-4,0.2117 0.0374,0.5059 0.06367,0.5059 0.01174,0 0.07698,-0.1123 0.14497,-0.2497 0.126355,-0.2554 0.140827,-0.2698 0.219257,-0.2202 0.03554,0.023 6.64e-4,0.1147 -0.162287,0.4325 -0.114086,0.2221 -0.211425,0.4039 -0.216312,0.4039 -0.0047,0 -0.03946,-0.027 -0.07691,-0.059 z m 6.332965,-0.4235 c -0.11945,-0.051 -0.25975,-0.2472 -0.29282,-0.4077 -0.073,-0.3539 0.42998,-0.6279 0.71402,-0.3889 0.13985,0.1177 0.2012,0.2466 0.2012,0.4228 0,0.1728 -0.0771,0.2885 -0.24561,0.3685 -0.13775,0.066 -0.23572,0.066 -0.37679,0.01 z m 0.37457,-0.1609 c 0.15616,-0.1344 0.12396,-0.3656 -0.0724,-0.5201 -0.11941,-0.094 -0.26275,-0.089 -0.36408,0.012 -0.13418,0.1341 -0.0873,0.3633 0.10527,0.5148 0.1148,0.09 0.22074,0.088 0.33123,-0.01 z m -7.920805,-0.1104 c -0.106757,-0.084 -0.200614,-0.187 -0.21224,-0.2333 -0.07048,-0.2809 0.192158,-0.6457 0.464811,-0.6457 0.07214,0 0.462224,0.2305 0.503708,0.2976 0.02076,0.034 -0.505406,0.7374 -0.548223,0.7334 -0.0092,0 -0.102784,-0.069 -0.208056,-0.152 z m 0.372844,-0.2927 c 0.09979,-0.1337 0.179942,-0.2567 0.178112,-0.2731 -0.006,-0.054 -0.273151,-0.1745 -0.34426,-0.156 -0.0905,0.024 -0.298411,0.298 -0.298411,0.3937 0,0.069 0.19942,0.2841 0.259295,0.2803 0.01313,0 0.105471,-0.111 0.205264,-0.2449 z m 7.979281,-0.3195 c -0.24278,-0.2787 -0.28417,-0.3423 -0.24981,-0.3837 0.0226,-0.027 0.0508,-0.05 0.0626,-0.05 0.0257,0 0.61482,0.6677 0.59818,0.6779 -0.006,0.01 -0.0359,0.026 -0.0658,0.048 -0.0468,0.036 -0.0942,-0.01 -0.34519,-0.2929 z m -4.58013,0.2798 c -1.204005,-0.1423 -2.005985,-0.4445 -2.833214,-1.0676 -0.34418,-0.2593 -0.46117,-0.3754 -0.256696,-0.2547 0.292522,0.1725 1.184355,0.1844 1.697156,0.023 0.314043,-0.099 0.562077,-0.2186 0.713461,-0.3437 0.0569,-0.047 0.145555,-0.1153 0.197013,-0.152 0.203752,-0.145 0.50526,-0.5262 0.676508,-0.8552 0.09614,-0.1847 0.142172,-0.244 0.16882,-0.2173 0.02016,0.02 0.03668,0.052 0.03668,0.071 0,0.056 0.175134,0.3853 0.205297,0.3853 0.01532,0 0.02786,0.016 0.02786,0.037 0,0.047 0.246229,0.343 0.412503,0.4945 0.150917,0.1376 0.487712,0.3675 0.538432,0.3676 0.0192,0 0.0531,0.018 0.0754,0.04 0.0222,0.023 0.14137,0.077 0.2648,0.1204 0.53791,0.1917 1.38928,0.2202 1.82197,0.061 0.12757,-0.047 0.23726,-0.08 0.24376,-0.074 0.0194,0.019 -0.42485,0.3656 -0.67554,0.5265 -0.63597,0.4081 -1.34892,0.6744 -2.114044,0.7896 -0.269817,0.04 -1.011929,0.07 -1.200089,0.048 z m -4.531696,-0.299 c -0.03734,-0.045 0.0013,-0.097 0.278549,-0.374 0.305594,-0.3056 0.324767,-0.3189 0.379695,-0.2639 0.05491,0.055 0.04198,0.073 -0.256988,0.3739 -0.173164,0.174 -0.324542,0.3162 -0.336407,0.3162 -0.01187,0 -0.04105,-0.023 -0.06486,-0.052 z m 9.734346,-0.021 c -0.0311,-0.032 -0.0175,-0.063 0.0616,-0.1447 l 0.10155,-0.1048 -0.28222,-0.2467 c -0.15522,-0.1356 -0.28333,-0.2634 -0.2847,-0.2841 -0.002,-0.021 0.018,-0.055 0.0432,-0.075 0.0361,-0.03 0.10352,0.015 0.32246,0.2124 0.15227,0.1377 0.28984,0.2503 0.30571,0.2503 0.0159,0 0.0662,-0.04 0.11164,-0.089 0.0715,-0.077 0.0891,-0.083 0.12897,-0.042 0.0397,0.041 0.0119,0.084 -0.19637,0.3059 -0.1334,0.1419 -0.2491,0.2581 -0.25712,0.2581 -0.008,0 -0.0326,-0.018 -0.0546,-0.04 z M 3.658178,203.0506 c -0.02202,-0.022 -0.03999,-0.061 -0.03999,-0.087 0,-0.047 0.455526,-0.8388 0.482791,-0.8388 0.008,0 0.03104,0.032 0.05133,0.069 0.02878,0.054 0.02487,0.087 -0.01777,0.1523 -0.05982,0.091 -0.05266,0.11 0.122846,0.3224 0.07013,0.085 0.08685,0.09 0.174797,0.057 0.0818,-0.032 0.107075,-0.027 0.159031,0.024 0.06015,0.06 0.05007,0.066 -0.385538,0.2013 -0.500803,0.1562 -0.492381,0.1547 -0.5475,0.1 z m 0.520872,-0.2447 c 0.01731,-0.015 -0.136946,-0.2149 -0.166009,-0.2149 -0.0244,0 -0.194983,0.2688 -0.194983,0.3074 0,0.017 0.334125,-0.069 0.360992,-0.093 z m 1.903944,-0.2533 c -0.293066,-0.062 -0.730653,-0.2358 -0.76053,-0.303 -0.006,-0.014 -0.03807,-0.025 -0.07103,-0.025 -0.20269,0 -0.855879,-0.9823 -1.098528,-1.6519 -0.06042,-0.1667 -0.07102,-0.2532 -0.05929,-0.4829 0.0078,-0.154 0.03204,-0.3458 0.05372,-0.4262 0.09294,-0.344 0.433567,-0.9429 0.594993,-1.0462 0.02288,-0.014 0.04165,-0.046 0.04165,-0.069 0,-0.04 0.138577,-0.1533 0.462807,-0.3771 0.2674,-0.1846 0.783908,-0.3469 1.16928,-0.3673 0.350334,-0.018 0.965926,0.062 0.965926,0.1273 0,0.016 0.01731,0.029 0.0384,0.029 0.03554,0 0.283742,0.1169 0.448158,0.2111 0.139333,0.08 0.442925,0.3394 0.444464,0.3801 6.63e-4,0.023 0.02408,0.042 0.05153,0.042 0.02746,0 0.04994,0.014 0.04994,0.032 0,0.017 0.0197,0.051 0.04377,0.075 0.05909,0.059 0.292177,0.4663 0.400931,0.6999 0.08485,0.1822 0.08818,0.2114 0.0874,0.766 -6.64e-4,0.4707 -0.01214,0.6103 -0.06228,0.7598 -0.09316,0.2776 -0.27047,0.5832 -0.471855,0.8132 -0.164423,0.1878 -0.463066,0.4526 -0.510485,0.4526 -0.01048,0 -0.1011,0.052 -0.201331,0.1165 -0.100231,0.064 -0.202604,0.1166 -0.227488,0.1166 -0.02487,0 -0.137026,0.036 -0.249201,0.08 -0.174544,0.069 -0.260741,0.08 -0.597533,0.08 -0.216465,0 -0.461017,-0.014 -0.543454,-0.032 z m 1.26575,-0.6369 c 0.256828,-0.084 0.597619,-0.2504 0.74314,-0.3618 0.17979,-0.1378 0.389271,-0.3588 0.389271,-0.4109 0,-0.022 0.02998,-0.068 0.06662,-0.1008 0.04211,-0.038 0.06662,-0.1027 0.06662,-0.1754 0,-0.1146 -5.38e-4,-0.115 -0.124903,-0.094 -0.269529,0.047 -1.041193,0.059 -1.263913,0.021 -0.212499,-0.036 -0.50973,-0.1282 -0.50973,-0.1578 0,-0.01 0.02182,-0.047 0.04854,-0.087 0.06903,-0.1054 0.180711,-0.5953 0.202783,-0.8895 0.01678,-0.2242 -0.0076,-0.4383 -0.103553,-0.9088 -0.02434,-0.1193 -0.09928,-0.2889 -0.164782,-0.3729 -0.09402,-0.1204 -0.148022,-0.024 -0.291076,0.5156 -0.125194,0.473 -0.13688,0.5527 -0.139128,0.9493 -0.0027,0.4302 -0.002,0.4342 0.10748,0.6284 0.06048,0.1074 0.105431,0.1998 0.09993,0.2051 -0.0053,0.01 -0.105391,0.042 -0.221957,0.081 -0.416569,0.1401 -1.097155,0.1251 -1.442734,-0.032 -0.192988,-0.088 -0.327142,-0.088 -0.327142,0 0,0.1165 0.225704,0.4796 0.406647,0.6542 0.201596,0.1945 0.532969,0.3982 0.80909,0.4973 0.332786,0.1195 1.332801,0.1436 1.648794,0.04 z m 3.780386,0.6432 c -0.0366,-0.015 -0.15654,-0.055 -0.26645,-0.088 -0.43611,-0.1328 -0.998841,-0.5279 -1.215946,-0.8537 -0.0457,-0.069 -0.09431,-0.1248 -0.108057,-0.1249 -0.01373,0 -0.025,-0.021 -0.025,-0.046 0,-0.025 -0.0303,-0.084 -0.06735,-0.1311 -0.03701,-0.047 -0.115896,-0.234 -0.17524,-0.4153 -0.09673,-0.2957 -0.107473,-0.3674 -0.103925,-0.6935 0.004,-0.357 0.05564,-0.6291 0.165172,-0.868 0.02646,-0.058 0.04809,-0.1135 0.04809,-0.1238 0,-0.028 0.25076,-0.3872 0.348244,-0.4997 0.04556,-0.052 0.09179,-0.1238 0.102705,-0.1583 0.01095,-0.035 0.04045,-0.062 0.06572,-0.062 0.0252,0 0.102907,-0.052 0.172627,-0.1167 0.14109,-0.1298 0.61992,-0.3727 0.92501,-0.469 0.15343,-0.048 0.30139,-0.063 0.6495,-0.063 0.51907,0 0.6179,0.014 0.8838,0.1342 0.055,0.024 0.13909,0.053 0.18696,0.063 0.11146,0.023 0.45727,0.2536 0.63229,0.4218 0.0745,0.072 0.14719,0.1301 0.16152,0.1301 0.0143,0 0.0693,0.064 0.12209,0.1416 0.0528,0.078 0.11481,0.1535 0.13777,0.1681 0.0229,0.015 0.0417,0.051 0.0417,0.081 0,0.03 0.0286,0.085 0.0637,0.1232 0.0815,0.088 0.26249,0.625 0.29512,0.8755 0.0448,0.3439 0.002,0.5609 -0.18809,0.9595 -0.31216,0.6534 -0.6816,1.1467 -0.95103,1.2699 -0.0563,0.026 -0.1548,0.078 -0.21892,0.1164 -0.0642,0.039 -0.22899,0.1076 -0.36639,0.1538 -0.21526,0.073 -0.31891,0.085 -0.74942,0.093 -0.27479,0.01 -0.52959,0 -0.56624,-0.018 z m 0.81605,-0.6964 c 0,-0.1259 0.003,-0.1295 0.1408,-0.1515 0.12564,-0.02 0.14746,-0.013 0.20262,0.062 0.0729,0.1 0.20715,0.1118 0.36169,0.032 0.0944,-0.049 0.10088,-0.063 0.0843,-0.1871 -0.0155,-0.1157 -0.006,-0.1451 0.071,-0.2125 0.10334,-0.091 0.18043,-0.101 0.23883,-0.031 0.0689,0.083 0.15545,0.057 0.26367,-0.08 0.11867,-0.1498 0.13207,-0.2562 0.0361,-0.2866 -0.0366,-0.012 -0.0666,-0.036 -0.0666,-0.056 0,-0.02 0.0247,-0.024 0.0583,-0.01 0.13836,0.057 0.17071,0.054 0.2203,-0.022 0.0281,-0.043 0.061,-0.1402 0.0731,-0.2159 0.0216,-0.1354 0.0198,-0.1385 -0.0982,-0.1775 -0.0826,-0.027 -0.12023,-0.06 -0.12023,-0.1038 0,-0.054 0.0242,-0.064 0.14989,-0.064 h 0.14987 v -0.1963 c 0,-0.1832 -0.006,-0.1976 -0.0861,-0.2178 -0.0473,-0.012 -0.11481,-0.013 -0.14989,0 -0.0503,0.016 -0.0639,0.01 -0.0642,-0.057 -3.6e-4,-0.043 -0.009,-0.1077 -0.0187,-0.1451 -0.0142,-0.053 0.007,-0.08 0.0962,-0.1223 0.099,-0.047 0.11221,-0.067 0.0978,-0.1488 -0.009,-0.051 -0.056,-0.1364 -0.10411,-0.1881 -0.0779,-0.084 -0.10282,-0.092 -0.22924,-0.073 -0.17696,0.027 -0.20634,-0.025 -0.10855,-0.1912 l 0.0695,-0.1178 -0.14039,-0.1201 c -0.16601,-0.1421 -0.2047,-0.1469 -0.3131,-0.039 -0.0791,0.079 -0.0848,0.08 -0.17843,0.027 -0.0849,-0.048 -0.0945,-0.07 -0.0782,-0.17 0.0236,-0.145 -0.0484,-0.2045 -0.24708,-0.2045 -0.126,0 -0.14893,0.012 -0.19631,0.1039 -0.0598,0.1157 -0.10396,0.096 -0.12036,-0.053 -0.01,-0.088 -0.0265,-0.1018 -0.1541,-0.1234 -0.20201,-0.035 -0.30645,0.012 -0.30645,0.1362 0,0.1042 -0.0172,0.1152 -0.23999,0.1547 -0.11204,0.02 -0.12533,0.014 -0.14433,-0.062 -0.0276,-0.11 -0.13254,-0.1269 -0.31232,-0.05 -0.12793,0.054 -0.14185,0.071 -0.12786,0.1523 0.009,0.051 0.0252,0.1139 0.0369,0.1413 0.0143,0.034 -0.0171,0.075 -0.0963,0.126 -0.11232,0.073 -0.1225,0.073 -0.23038,0.023 -0.13277,-0.063 -0.2086,-0.035 -0.3156,0.1149 -0.09023,0.1267 -0.08696,0.1836 0.0143,0.2499 0.12601,0.083 0.10082,0.1197 -0.08131,0.1197 -0.09051,0 -0.173611,0.014 -0.18466,0.032 -0.01108,0.018 -0.02905,0.1079 -0.03992,0.1999 -0.01784,0.1504 -0.01327,0.1673 0.0451,0.1673 0.03568,0 0.09396,0.021 0.129495,0.047 0.06254,0.046 0.06194,0.047 -0.01863,0.066 -0.04576,0.01 -0.113206,0.022 -0.149842,0.028 -0.04881,0.01 -0.0695,0.04 -0.0774,0.1225 -0.01824,0.1905 0.01685,0.2698 0.119663,0.2704 0.128016,0 0.161365,0.032 0.187593,0.1744 0.01746,0.095 0.01193,0.1248 -0.02268,0.1248 -0.02514,0 -0.0777,0.034 -0.116855,0.076 l -0.07118,0.076 0.08621,0.1446 c 0.08392,0.1407 0.09004,0.1441 0.229186,0.1285 0.10113,-0.011 0.1579,0 0.19402,0.035 0.0459,0.046 0.0443,0.061 -0.0162,0.1455 -0.0834,0.1171 -0.0615,0.1942 0.0788,0.2779 0.11604,0.069 0.20177,0.069 0.30815,0 0.0477,-0.031 0.0879,-0.033 0.14156,-0.01 0.0605,0.028 0.0749,0.06 0.0749,0.1727 0,0.1115 0.0149,0.1463 0.0749,0.1751 0.21307,0.1021 0.32791,0.083 0.38317,-0.063 0.0501,-0.1327 0.12194,-0.1064 0.13511,0.05 l 0.0104,0.1223 h 0.23115 0.23114 z m -0.61888,-1.1364 c -0.17489,-0.091 -0.21468,-0.1303 -0.29145,-0.2869 -0.10749,-0.2192 -0.1113,-0.3327 -0.0179,-0.5316 0.11741,-0.2497 0.38651,-0.4142 0.67775,-0.4142 0.24811,0 0.40159,0.07 0.5918,0.2689 0.15116,0.1582 0.15822,0.1742 0.15822,0.357 0,0.1492 -0.0183,0.2183 -0.0833,0.3138 -0.0458,0.067 -0.0833,0.1347 -0.0833,0.1496 0,0.014 -0.0712,0.07 -0.15821,0.123 -0.11835,0.072 -0.21277,0.1 -0.37472,0.111 -0.19401,0.013 -0.23753,0.01 -0.41903,-0.091 z m 3.02726,1.774 -0.40614,-0.084 0.05,-0.077 c 0.0434,-0.066 0.0642,-0.072 0.15618,-0.046 0.11578,0.033 0.15468,0 0.2784,-0.226 0.0552,-0.1016 0.0551,-0.1097 -0.002,-0.1725 -0.0581,-0.064 -0.0503,-0.2039 0.0113,-0.2039 0.0221,0 0.45565,0.5745 0.54611,0.7237 0.0137,0.023 0.009,0.071 -0.0112,0.1084 -0.0455,0.085 -0.10802,0.083 -0.62301,-0.024 z m 0.35492,-0.2274 c -0.0574,-0.083 -0.11927,-0.1467 -0.13747,-0.1406 -0.0489,0.017 -0.14506,0.1862 -0.11968,0.2116 0.0246,0.025 0.21013,0.072 0.30164,0.077 0.0505,0 0.0435,-0.02 -0.0445,-0.1483 z m -11.608519,-0.027 c -0.01618,-0.064 0.01824,-0.1491 0.148651,-0.365 0.09336,-0.1546 0.169749,-0.2903 0.169749,-0.3015 0,-0.041 -0.06267,-0.017 -0.301071,0.1136 -0.184147,0.1013 -0.250255,0.1237 -0.27057,0.092 -0.05412,-0.085 -0.05054,-0.088 0.514432,-0.3867 l 0.259209,-0.137 0.03621,0.08 c 0.03157,0.07 0.01413,0.1161 -0.134314,0.3618 -0.0938,0.1553 -0.170544,0.298 -0.170544,0.3172 0,0.019 0.120001,-0.028 0.266664,-0.1046 0.226744,-0.1184 0.271551,-0.1318 0.29926,-0.089 0.01791,0.028 0.03263,0.058 0.0327,0.066 0,0.013 -0.703567,0.388 -0.802299,0.4271 -0.01486,0.01 -0.03654,-0.027 -0.04809,-0.073 z m 12.096299,-0.5145 c -0.0313,-0.051 0.0184,-0.1681 0.0638,-0.1508 0.0745,0.028 0.18249,-0.1107 0.18249,-0.2355 0,-0.1334 -0.10114,-0.2301 -0.30439,-0.2909 -0.15841,-0.047 -0.27755,0 -0.33589,0.1248 -0.0329,0.072 -0.0298,0.1046 0.0179,0.1877 0.0441,0.077 0.0487,0.1113 0.0195,0.1465 -0.0567,0.069 -0.0893,0.056 -0.14569,-0.052 -0.14301,-0.2766 0.0468,-0.5679 0.37001,-0.5679 0.16661,0 0.38345,0.1095 0.45423,0.2293 0.12164,0.2059 0.0473,0.4866 -0.15419,0.5822 -0.13162,0.062 -0.14448,0.065 -0.16772,0.028 z M 2.474295,200.655 c -0.07689,-0.044 -0.155092,-0.2274 -0.155092,-0.3624 0,-0.066 0.03104,-0.1335 0.08841,-0.1909 l 0.0884,-0.088 0.02892,0.078 c 0.02063,0.055 0.01433,0.094 -0.02175,0.1343 -0.06837,0.076 -0.0638,0.177 0.01214,0.2707 0.09624,0.1189 0.157586,0.042 0.178954,-0.2242 0.02109,-0.2626 0.09373,-0.3588 0.27067,-0.3588 0.135878,0 0.214654,0.058 0.275471,0.2037 0.0682,0.1631 0.05511,0.2918 -0.04145,0.4066 -0.101399,0.1204 -0.132702,0.1271 -0.157221,0.033 -0.0114,-0.043 0.0068,-0.094 0.04954,-0.1367 0.107234,-0.1073 0.03283,-0.3605 -0.105862,-0.3605 -0.09184,0 -0.124246,0.067 -0.139653,0.2902 -0.0096,0.1387 -0.03455,0.2293 -0.07572,0.2749 -0.06659,0.073 -0.197935,0.087 -0.295693,0.03 z m 12.957775,-0.078 c -0.36079,-0.095 -0.42257,-0.1452 -0.42257,-0.3407 0,-0.2464 0.12158,-0.4092 0.30591,-0.4098 0.14448,0 0.69333,0.1416 0.69281,0.1793 -0.002,0.1075 -0.0499,0.1154 -0.31623,0.051 -0.32417,-0.077 -0.42871,-0.08 -0.49692,-0.012 -0.0665,0.066 -0.0677,0.2265 -0.002,0.2811 0.0277,0.023 0.1888,0.074 0.35806,0.1131 0.26012,0.06 0.30775,0.082 0.30775,0.1372 0,0.091 -0.0811,0.091 -0.42678,0 z m -1.12043,-0.9001 c -0.1098,-0.5127 -0.28799,-0.8347 -0.68261,-1.2331 -0.18998,-0.1918 -0.36937,-0.3388 -0.48477,-0.3971 -0.10076,-0.051 -0.20685,-0.1134 -0.23577,-0.1389 -0.0289,-0.025 -0.0767,-0.047 -0.10629,-0.047 -0.0295,0 -0.062,-0.013 -0.072,-0.03 -0.0101,-0.016 -0.14208,-0.064 -0.29341,-0.1073 -0.23346,-0.066 -0.35298,-0.078 -0.78904,-0.079 -0.28265,0 -0.49022,-0.01 -0.46128,-0.011 0.0289,-0.01 0.0715,-0.059 0.0945,-0.1165 0.0231,-0.058 0.0752,-0.1439 0.11571,-0.1897 0.0406,-0.046 0.11469,-0.1871 0.16469,-0.3141 0.05,-0.1269 0.1039,-0.2543 0.11985,-0.2832 0.13006,-0.2347 0.17845,-1.1105 0.0816,-1.4778 -0.028,-0.1062 -0.0509,-0.2228 -0.0509,-0.2592 0,-0.036 -0.0225,-0.074 -0.0499,-0.085 -0.0274,-0.01 -0.0499,-0.041 -0.0499,-0.067 0,-0.138 -0.37825,-0.6898 -0.62141,-0.9066 -0.1052,-0.094 -0.1837,-0.1705 -0.17445,-0.1705 0.0374,0 0.62236,0.2455 0.81082,0.3402 0.59283,0.298 1.28625,0.8659 1.71987,1.4085 0.46964,0.5877 0.83518,1.354 1.01686,2.1317 0.0869,0.372 0.0933,0.4481 0.0923,1.0991 -6.5e-4,0.5028 -0.0152,0.7604 -0.0514,0.9161 l -0.0503,0.2164 z M 3.873363,199.4866 c -0.237608,-1.5255 0.286414,-3.1653 1.373754,-4.2987 0.59102,-0.6161 1.142678,-0.991 1.918216,-1.3037 0.321266,-0.1295 0.460964,-0.1564 0.298809,-0.058 -0.131043,0.08 -0.467728,0.4511 -0.559875,0.6172 -0.183377,0.3307 -0.250866,0.48 -0.272666,0.6032 -0.013,0.073 -0.04755,0.1782 -0.07684,0.2332 -0.08848,0.166 -0.07495,0.9286 0.02215,1.2491 0.08076,0.2664 0.263819,0.6941 0.320928,0.7497 0.05186,0.051 0.256304,0.3556 0.244565,0.3649 -0.0053,0.01 -0.137623,-0.01 -0.293331,-0.021 -0.337097,-0.035 -0.933489,0.01 -1.099159,0.081 -0.06414,0.028 -0.184027,0.077 -0.266464,0.1108 -0.08244,0.033 -0.187357,0.085 -0.233158,0.1154 -0.04583,0.03 -0.162208,0.1035 -0.258692,0.1631 -0.1995,0.1232 -0.541212,0.4805 -0.621726,0.6502 -0.02971,0.062 -0.06835,0.1226 -0.0859,0.1335 -0.05916,0.036 -0.197617,0.3644 -0.253094,0.5993 -0.09228,0.3908 -0.09811,0.3911 -0.15752,0.01 z m -1.470887,0.1086 c -0.30702,-0.127 -0.329417,-0.6415 -0.03402,-0.7817 0.166585,-0.079 0.453669,-0.069 0.566494,0.02 0.09969,0.078 0.18365,0.247 0.18365,0.3686 0,0.1238 -0.113025,0.2989 -0.235208,0.3644 -0.117773,0.063 -0.362709,0.078 -0.480907,0.029 z m 0.458073,-0.2009 c 0.178588,-0.1405 0.127595,-0.4021 -0.0901,-0.4621 -0.1369,-0.038 -0.330425,0 -0.42037,0.081 -0.09297,0.084 -0.08433,0.2638 0.01757,0.3658 0.107022,0.107 0.366284,0.1152 0.492899,0.016 z m 12.525821,0.051 c -0.1394,-0.06 -0.21033,-0.2056 -0.21033,-0.4299 0,-0.2826 0.005,-0.2875 0.28179,-0.2875 0.13275,0 0.33548,0.01 0.45051,0.022 l 0.20915,0.022 -0.0183,0.2415 c -0.0209,0.2761 -0.0815,0.3929 -0.23089,0.445 -0.13956,0.048 -0.35355,0.044 -0.48196,-0.013 z m 0.50928,-0.2016 c 0.0653,-0.065 0.0815,-0.1112 0.0734,-0.2082 l -0.0103,-0.1244 -0.32474,-0.01 -0.32476,-0.01 v 0.146 c 0,0.2091 0.0892,0.2768 0.37622,0.2856 0.0939,0 0.14795,-0.018 0.21017,-0.08 z m -13.353608,-0.852 c -0.06979,-0.017 -0.155822,-0.046 -0.191177,-0.064 -0.186416,-0.1 -0.216704,-0.4788 -0.04974,-0.6225 0.170333,-0.1465 0.266041,-0.043 0.101346,0.1101 -0.112839,0.1045 -0.11138,0.2532 0.0033,0.3435 0.157194,0.1237 0.412609,0.1322 0.527219,0.017 0.07747,-0.077 0.06732,-0.2663 -0.01751,-0.3258 -0.04967,-0.035 -0.0634,-0.069 -0.04775,-0.1184 0.02885,-0.091 0.05691,-0.088 0.162938,0.019 0.111916,0.1119 0.131037,0.3066 0.04643,0.473 -0.07338,0.1443 -0.316444,0.2211 -0.535184,0.1691 z m 12.623328,-0.122 c -0.0678,-0.5574 -0.0677,-0.541 -0.002,-0.5431 0.0341,0 0.2345,-0.021 0.44517,-0.046 0.21067,-0.024 0.3913,-0.04 0.40139,-0.033 0.0101,0.01 0.0219,0.067 0.0262,0.1372 0.005,0.07 0.0197,0.2121 0.0341,0.3161 0.0227,0.1643 0.0186,0.1912 -0.0312,0.2042 -0.0588,0.015 -0.0974,-0.089 -0.0974,-0.2621 0,-0.043 -0.0137,-0.113 -0.0304,-0.1571 -0.0252,-0.066 -0.0483,-0.077 -0.13311,-0.065 l -0.10266,0.015 0.008,0.2377 c 0.006,0.1928 -0.002,0.2377 -0.0418,0.2377 -0.0288,0 -0.0537,-0.035 -0.0588,-0.083 -0.0398,-0.3781 -0.0342,-0.3663 -0.17449,-0.3663 -0.071,0 -0.13699,0.013 -0.14647,0.028 -0.009,0.015 -0.002,0.1296 0.0179,0.2541 0.0284,0.1827 0.0266,0.2317 -0.01,0.2547 -0.0754,0.047 -0.0856,0.035 -0.10554,-0.1287 z m -6.425596,0.02 c -0.446406,-0.1284 -0.603587,-0.1925 -0.808194,-0.3295 -0.07328,-0.049 -0.170704,-0.101 -0.216505,-0.1154 -0.08248,-0.026 -0.427207,-0.3589 -0.583559,-0.5639 -0.135779,-0.1781 -0.30322,-0.5265 -0.328283,-0.6833 -0.01306,-0.081 -0.0382,-0.1656 -0.05591,-0.187 -0.07902,-0.095 -0.108342,-0.9526 -0.03468,-1.0136 0.01108,-0.01 0.04821,-0.1066 0.08262,-0.2166 0.08179,-0.2614 0.250733,-0.6109 0.346156,-0.7158 0.04172,-0.046 0.107512,-0.1285 0.146178,-0.1834 0.03867,-0.055 0.135732,-0.1524 0.215676,-0.2166 0.07995,-0.064 0.164058,-0.1326 0.186899,-0.152 0.02281,-0.019 0.112806,-0.077 0.199918,-0.1283 0.08711,-0.051 0.16955,-0.1108 0.183192,-0.1329 0.07186,-0.1168 1.358977,-0.1817 1.823427,-0.092 0.194361,0.038 0.421671,0.1299 0.444111,0.1803 0.006,0.014 0.0258,0.025 0.0439,0.025 0.11364,0 0.69765,0.5291 0.79345,0.7187 0.027,0.054 0.0816,0.1378 0.12136,0.1873 0.13031,0.1623 0.28239,0.6195 0.31354,0.9426 0.0619,0.6428 -0.0838,1.1715 -0.4591,1.6654 -0.19414,0.2554 -0.49435,0.5496 -0.56103,0.5496 -0.055,0 -0.27415,0.1189 -0.50267,0.2728 -0.204363,0.1376 -0.501532,0.2049 -0.917583,0.2077 -0.196662,0 -0.391513,-0.01 -0.433003,-0.019 z M 7.51523,195.7816 c 0,-0.3368 -0.0091,-0.6361 -0.02023,-0.665 -0.02056,-0.054 -0.195249,-0.075 -0.22433,-0.028 -0.0084,0.014 -0.02029,0.3167 -0.02639,0.6732 l -0.01108,0.6481 0.08272,0.021 c 0.04549,0.012 0.108952,0.01 0.141011,-0.01 0.05233,-0.027 0.0583,-0.092 0.0583,-0.6416 z m 3.45379,0.6334 c 0.0613,-0.023 0.0543,-0.1741 -0.009,-0.1984 -0.029,-0.011 -0.20884,-0.021 -0.3997,-0.021 h -0.347 v -0.1665 -0.1665 h 0.32641 c 0.3353,0 0.40636,-0.024 0.40636,-0.1379 0,-0.091 -0.0602,-0.11 -0.39969,-0.1281 l -0.31643,-0.017 -0.0103,-0.1238 -0.0103,-0.1237 0.35927,-0.01 0.35926,-0.01 0.0329,-0.094 c 0.0254,-0.073 0.0218,-0.1005 -0.016,-0.1244 -0.0268,-0.017 -0.25365,-0.031 -0.50408,-0.031 H 9.985291 l -0.01936,0.2081 c -0.03084,0.3317 -0.03833,1.0576 -0.01094,1.0576 0.01373,-10e-5 0.025,0.021 0.025,0.047 0,0.026 0.02497,0.052 0.05547,0.059 0.0836,0.016 0.88365,0 0.93358,-0.021 z M 8.545295,196.38 c 0.197596,-0.1021 0.249407,-0.4637 0.08815,-0.6152 -0.08276,-0.078 -0.407549,-0.2021 -0.527835,-0.2021 -0.16201,0 -0.212851,-0.1589 -0.07454,-0.2329 0.117435,-0.063 0.341335,0.01 0.383793,0.1172 0.03177,0.084 0.166772,0.1399 0.234738,0.098 0.06228,-0.039 0.01366,-0.2887 -0.06909,-0.3557 -0.221447,-0.1793 -0.668138,-0.164 -0.836103,0.029 -0.06714,0.077 -0.109828,0.3323 -0.06068,0.3626 0.0195,0.012 0.04888,0.058 0.06533,0.1007 0.02268,0.06 0.07667,0.091 0.222773,0.1306 0.383149,0.1029 0.458862,0.1368 0.469678,0.2098 0.02262,0.1522 -0.29292,0.2307 -0.438866,0.1092 -0.03415,-0.029 -0.07501,-0.086 -0.09077,-0.1268 -0.02228,-0.059 -0.05498,-0.075 -0.147107,-0.075 -0.145661,0 -0.174451,0.059 -0.110889,0.2256 0.07588,0.1994 0.221446,0.2741 0.534037,0.2741 0.16573,0 0.298054,-0.018 0.357331,-0.048 z m 0.901786,-0.5009 v -0.5496 h 0.196238 c 0.18347,0 0.19765,-0.01 0.217934,-0.086 0.04025,-0.1603 -0.01432,-0.1801 -0.499348,-0.1801 -0.507441,0 -0.614285,0.026 -0.614285,0.1485 0,0.09 0.04383,0.1099 0.283118,0.1258 l 0.133232,0.01 0.0086,0.4996 c 0.0047,0.2749 0.01552,0.5183 0.02394,0.5413 0.0084,0.023 0.06821,0.042 0.1329,0.042 h 0.117627 z m -6.703205,1.4054 c -0.312445,-0.081 -0.391367,-0.1137 -0.391367,-0.1605 0,-0.032 0.01127,-0.066 0.025,-0.074 0.01373,-0.01 0.216087,0.03 0.449657,0.085 0.397236,0.094 0.424674,0.1057 0.424674,0.18 0,0.099 -0.012,0.099 -0.507947,-0.031 z m 12.075944,-0.5639 c -0.0575,-0.1512 -0.0945,-0.2834 -0.0823,-0.294 0.0122,-0.01 0.19947,-0.084 0.41616,-0.1642 0.32835,-0.121 0.39901,-0.1372 0.42414,-0.097 0.0527,0.083 0.0167,0.1098 -0.30428,0.2236 -0.1727,0.061 -0.32689,0.124 -0.34265,0.1396 -0.0237,0.023 0.0173,0.1916 0.10369,0.4257 0.009,0.024 -0.0112,0.042 -0.0474,0.042 -0.048,0 -0.0874,-0.065 -0.1673,-0.2748 z m -11.684577,0.138 c -0.0916,-0.036 -0.271458,-0.1052 -0.39969,-0.1521 -0.128238,-0.047 -0.236786,-0.089 -0.241216,-0.092 -0.0078,-0.01 0.222023,-0.5919 0.239711,-0.6105 0.0046,-0.01 0.03216,0 0.06088,0.011 0.04589,0.018 0.04238,0.047 -0.02852,0.2347 -0.04443,0.1181 -0.08079,0.2278 -0.08079,0.244 0,0.016 0.0457,0.045 0.101597,0.065 0.09943,0.035 0.102983,0.032 0.166539,-0.1162 0.03575,-0.083 0.06519,-0.1614 0.06546,-0.1737 0.0013,-0.059 0.06035,-0.1056 0.108985,-0.087 0.04862,0.018 0.04583,0.043 -0.02653,0.2353 l -0.08076,0.2146 0.115815,0.055 c 0.139474,0.066 0.154336,0.055 0.260821,-0.2071 0.08112,-0.1993 0.139606,-0.2599 0.171301,-0.1773 0.01957,0.051 -0.194466,0.6035 -0.238404,0.6157 -0.01572,0.01 -0.103547,-0.022 -0.195143,-0.059 z m 11.423697,-0.7654 c -0.0151,-0.047 6.7e-4,-0.094 0.0498,-0.146 l 0.0718,-0.077 -0.10664,-0.1733 c -0.10111,-0.1644 -0.11235,-0.1723 -0.21682,-0.1527 -0.0904,0.017 -0.11697,0.01 -0.14797,-0.05 -0.0208,-0.039 -0.0328,-0.074 -0.0268,-0.079 0.006,-0.01 0.22086,-0.039 0.47733,-0.076 0.42163,-0.062 0.47031,-0.063 0.50795,-0.016 0.0229,0.028 0.0416,0.069 0.0416,0.09 0,0.048 -0.56077,0.7492 -0.59928,0.7492 -0.016,0 -0.039,-0.031 -0.0511,-0.07 z m 0.34586,-0.4994 c 0.0615,-0.074 0.1039,-0.1425 0.0942,-0.1522 -0.01,-0.01 -0.10115,0 -0.20332,0.021 -0.17607,0.036 -0.18378,0.043 -0.1481,0.1112 0.049,0.094 0.0983,0.156 0.12448,0.1553 0.0115,0 0.0712,-0.061 0.1327,-0.1353 z m -11.403166,0.067 c -0.36139,-0.2088 -0.332938,-0.2078 -0.464585,-0.014 -0.03568,0.052 -0.05425,0.058 -0.08711,0.027 -0.03329,-0.032 -0.0094,-0.096 0.117236,-0.3165 0.193975,-0.3368 0.206324,-0.351 0.259374,-0.298 0.03303,0.033 0.02958,0.062 -0.01678,0.1428 -0.03204,0.056 -0.05061,0.1137 -0.04139,0.1287 0.0093,0.015 0.159204,0.1073 0.333217,0.2051 0.174013,0.098 0.316384,0.1865 0.316391,0.1967 6e-6,0.01 -0.01871,0.042 -0.04165,0.07 -0.03654,0.045 -0.0822,0.028 -0.374713,-0.141 z m 10.438776,-0.5776 c -0.0641,-0.021 -0.1444,-0.085 -0.19007,-0.1529 -0.19805,-0.2921 0.071,-0.6995 0.46204,-0.6995 0.25965,0 0.49037,0.3345 0.36614,0.5308 -0.0506,0.08 -0.13034,-0.018 -0.1418,-0.1742 -0.0195,-0.2661 -0.26308,-0.2946 -0.49915,-0.059 -0.1452,0.1452 -0.15718,0.221 -0.0554,0.3505 0.0596,0.076 0.0904,0.088 0.1806,0.073 0.10316,-0.017 0.1473,0.016 0.1473,0.1093 0,0.047 -0.15444,0.059 -0.26969,0.021 z m -9.695802,-0.1201 c -0.156795,-0.1293 -0.2265,-0.1529 -0.534249,-0.1813 l -0.25759,-0.024 0.05597,-0.074 c 0.04941,-0.066 0.07375,-0.071 0.207625,-0.049 0.0834,0.014 0.185241,0.026 0.226307,0.027 h 0.07466 l -0.08042,-0.2136 c -0.07689,-0.2042 -0.07782,-0.2159 -0.02115,-0.2672 0.05584,-0.051 0.06433,-0.04 0.147484,0.1886 0.04854,0.1333 0.08813,0.2598 0.08804,0.2812 0,0.021 0.06353,0.088 0.141397,0.1475 0.07786,0.06 0.153155,0.1183 0.167327,0.1302 0.01419,0.012 -0.0013,0.047 -0.03502,0.077 -0.05704,0.052 -0.06823,0.049 -0.18038,-0.043 z m 9.003842,-0.5626 c -0.0251,-0.016 -0.0401,-0.043 -0.0333,-0.062 0.0206,-0.055 0.58972,-0.6406 0.62287,-0.6406 0.017,0 0.0471,0.019 0.0669,0.043 0.0276,0.033 -0.0345,0.1191 -0.2651,0.3663 -0.16562,0.1778 -0.31114,0.3228 -0.3234,0.3225 -0.0122,0 -0.0428,-0.013 -0.068,-0.029 z m -8.291202,-0.5211 c -0.133703,-0.1747 -0.250953,-0.3381 -0.260569,-0.3632 -0.01917,-0.05 0.408471,-0.394 0.465932,-0.3748 0.0804,0.027 0.04602,0.091 -0.110697,0.2057 -0.0924,0.068 -0.168004,0.1337 -0.168004,0.1464 0,0.044 0.103998,0.1711 0.140302,0.1711 0.02016,0 0.08298,-0.035 0.139672,-0.077 0.158952,-0.1192 0.176022,-0.1251 0.217348,-0.075 0.03097,0.037 0.0088,0.068 -0.112806,0.1552 -0.08325,0.06 -0.151364,0.119 -0.151364,0.1316 0,0.013 0.0514,0.088 0.114198,0.1674 0.10417,0.1316 0.10929,0.148 0.0583,0.1868 -0.03077,0.023 -0.0634,0.043 -0.07256,0.043 -0.0092,0 -0.126043,-0.1422 -0.259739,-0.3169 z m 7.890632,0.1724 c -0.0352,-0.043 -0.0243,-0.562 0.0142,-0.6786 0.008,-0.023 -0.005,-0.041 -0.0269,-0.04 -0.0224,0 -0.10641,0.099 -0.18686,0.218 -0.0956,0.1419 -0.16482,0.2132 -0.19984,0.2059 -0.0908,-0.019 -0.0557,-0.099 0.19869,-0.4504 0.23055,-0.3187 0.24947,-0.3365 0.31299,-0.2935 0.0372,0.025 0.0662,0.066 0.0646,0.091 -0.002,0.024 -0.0136,0.185 -0.0264,0.3563 -0.0156,0.2081 -0.012,0.3075 0.0108,0.2997 0.0187,-0.01 0.10682,-0.1124 0.1956,-0.2359 0.14486,-0.2013 0.16754,-0.2198 0.22121,-0.1805 0.0553,0.04 0.0406,0.07 -0.19801,0.3991 -0.14179,0.1956 -0.27672,0.3555 -0.29983,0.3555 -0.0231,0 -0.0592,-0.02 -0.0801,-0.046 z m -6.955068,-0.5506 c -0.207014,-0.13 -0.302192,-0.4579 -0.19377,-0.6675 0.06983,-0.135 0.316663,-0.2487 0.475382,-0.219 0.15862,0.03 0.318467,0.1989 0.373408,0.3952 0.0374,0.1336 0.03515,0.1653 -0.01976,0.2758 -0.08138,0.1638 -0.204123,0.2496 -0.382984,0.2678 -0.107142,0.011 -0.173469,0 -0.252272,-0.052 z m 0.425893,-0.1671 c 0.05359,-0.054 0.09737,-0.1292 0.09737,-0.1682 0,-0.079 -0.08095,-0.2532 -0.159065,-0.3423 -0.0575,-0.066 -0.241753,-0.078 -0.344338,-0.023 -0.160226,0.086 -0.150205,0.3356 0.02069,0.5169 0.136303,0.1444 0.252405,0.1495 0.385312,0.017 z m 5.653035,0.1622 c -0.0531,-0.032 -0.0528,-0.04 0.005,-0.1406 0.12698,-0.2215 0.12225,-0.2458 -0.0663,-0.3413 -0.0944,-0.047 -0.17583,-0.082 -0.18097,-0.077 -0.006,0.01 -0.049,0.09 -0.0975,0.1861 -0.0782,0.1557 -0.0956,0.1716 -0.15389,0.1404 -0.0361,-0.019 -0.0657,-0.043 -0.0657,-0.051 0,-0.01 0.0902,-0.196 0.20052,-0.416 0.18335,-0.3658 0.20614,-0.3969 0.26646,-0.3647 0.0809,0.043 0.0809,0.04 -6.6e-4,0.1995 -0.0366,0.072 -0.0666,0.1466 -0.0666,0.1664 0,0.032 0.2668,0.1666 0.32921,0.1666 0.0131,0 0.0567,-0.067 0.0967,-0.1498 0.0764,-0.1574 0.0928,-0.1685 0.17322,-0.1175 0.0416,0.027 0.0176,0.096 -0.14877,0.4324 -0.1091,0.2206 -0.20635,0.4007 -0.21611,0.4002 -0.01,0 -0.0433,-0.016 -0.0744,-0.034 z m -5.122619,-0.7515 c -0.07518,-0.2311 -0.130665,-0.4262 -0.123291,-0.4336 0.02348,-0.023 0.367837,-0.1139 0.509259,-0.1338 0.120294,-0.017 0.144614,-0.01 0.208175,0.073 0.0964,0.1226 0.09068,0.229 -0.01777,0.3296 -0.08458,0.078 -0.08601,0.084 -0.025,0.1064 0.03562,0.013 0.130613,0.076 0.211127,0.1409 0.128815,0.1034 0.138816,0.1205 0.08327,0.1423 -0.105337,0.041 -0.125062,0.035 -0.29219,-0.1037 -0.104224,-0.086 -0.194586,-0.1333 -0.255562,-0.1333 -0.123841,0 -0.134307,0.025 -0.07898,0.1834 0.06447,0.1851 0.05996,0.2496 -0.01751,0.2496 -0.05359,0 -0.08854,-0.073 -0.201563,-0.4202 z m 0.424627,-0.2 c 0.08586,-0.054 0.09771,-0.1522 0.02567,-0.2119 -0.03873,-0.032 -0.08506,-0.032 -0.216505,0 -0.176573,0.043 -0.193922,0.072 -0.12798,0.2165 0.03369,0.074 0.05378,0.083 0.141563,0.065 0.05624,-0.012 0.136018,-0.043 0.177236,-0.069 z m 3.453852,0.4859 c -0.23894,-0.072 -0.33929,-0.337 -0.23313,-0.615 0.0798,-0.2089 0.1857,-0.2832 0.40344,-0.2832 0.14091,0 0.19665,0.017 0.27863,0.086 0.12154,0.1022 0.14206,0.2468 0.035,0.2468 -0.0415,0 -0.0798,-0.032 -0.0993,-0.084 -0.0422,-0.1108 -0.18257,-0.1643 -0.30169,-0.115 -0.2025,0.084 -0.26159,0.4822 -0.0904,0.6095 0.0941,0.07 0.14191,0.062 0.30011,-0.051 0.0469,-0.034 0.0672,-0.032 0.10894,0.01 0.0462,0.047 0.0435,0.059 -0.0259,0.1238 -0.0924,0.087 -0.23646,0.1146 -0.37564,0.073 z m -0.930781,-0.1873 c -0.05498,-0.01 -0.16559,-0.021 -0.245846,-0.031 l -0.145919,-0.019 0.02221,-0.2888 c 0.0122,-0.1587 0.0311,-0.3601 0.04205,-0.4473 l 0.01983,-0.1586 0.270445,0.022 c 0.148741,0.012 0.292921,0.026 0.320401,0.031 0.0274,0.01 0.0598,0.01 0.0718,0.012 0.0121,0 0.0141,0.032 0.005,0.069 -0.0122,0.047 -0.0383,0.062 -0.0885,0.051 -0.0391,-0.01 -0.148107,-0.023 -0.242187,-0.034 -0.138061,-0.016 -0.175008,-0.01 -0.191521,0.034 -0.05982,0.1558 0.0027,0.213 0.234944,0.2139 0.150234,0 0.210894,0.032 0.210894,0.1062 0,0.047 -0.0169,0.06 -0.0583,0.048 -0.032,-0.01 -0.140719,-0.021 -0.241477,-0.027 l -0.183192,-0.01 -0.01001,0.1369 c -0.0099,0.1351 -0.0082,0.1373 0.116573,0.1579 0.06963,0.011 0.180303,0.021 0.245948,0.021 0.135348,0 0.166968,0.02 0.141258,0.087 -0.0173,0.045 -0.08,0.05 -0.293919,0.024 z M 8.6992,192.7904 c -0.0072,-0.023 -0.02281,-0.1911 -0.03482,-0.3738 -0.012,-0.1825 -0.02985,-0.345 -0.03973,-0.3609 -0.0099,-0.016 -0.06886,-0.019 -0.131123,-0.01 -0.08632,0.016 -0.118026,0.01 -0.133532,-0.032 -0.01121,-0.029 -0.01459,-0.059 -0.0077,-0.066 0.007,-0.01 0.175227,-0.023 0.373825,-0.036 0.342555,-0.023 0.360482,-0.02 0.349167,0.039 -0.0088,0.047 -0.04583,0.066 -0.140693,0.073 l -0.128763,0.01 0.02387,0.3686 c 0.0189,0.2922 0.01466,0.3744 -0.02082,0.397 -0.06267,0.039 -0.09467,0.035 -0.109801,-0.013 z"
       id="path5577"
       inkscape:connector-curvature="0" />
  </g>
  <style
     id="style5126"
     data-made-with="vivus-instant">.gKRKSdkq_0{stroke-dasharray:51 53;stroke-dashoffset:52;animation:gKRKSdkq_draw 2000ms ease-out 0ms forwards;}.gKRKSdkq_1{stroke-dasharray:51 53;stroke-dashoffset:52;animation:gKRKSdkq_draw 2000ms ease-out 0ms forwards;}.gKRKSdkq_2{stroke-dasharray:397 399;stroke-dashoffset:398;animation:gKRKSdkq_draw 2000ms ease-out 0ms forwards;}.gKRKSdkq_3{stroke-dasharray:404 406;stroke-dashoffset:405;animation:gKRKSdkq_draw 2000ms ease-out 0ms forwards;}.gKRKSdkq_4{stroke-dasharray:404 406;stroke-dashoffset:405;animation:gKRKSdkq_draw 2000ms ease-out 0ms forwards;}.gKRKSdkq_5{stroke-dasharray:404 406;stroke-dashoffset:405;animation:gKRKSdkq_draw 2000ms ease-out 0ms forwards;}.gKRKSdkq_6{stroke-dasharray:285 287;stroke-dashoffset:286;animation:gKRKSdkq_draw 2000ms ease-out 0ms forwards;}.gKRKSdkq_7{stroke-dasharray:249 251;stroke-dashoffset:250;animation:gKRKSdkq_draw 2000ms ease-out 0ms forwards;}.gKRKSdkq_8{stroke-dasharray:456 458;stroke-dashoffset:457;animation:gKRKSdkq_draw 2000ms ease-out 0ms forwards;}.gKRKSdkq_9{stroke-dasharray:452 454;stroke-dashoffset:453;animation:gKRKSdkq_draw 2000ms ease-out 0ms forwards;}.gKRKSdkq_10{stroke-dasharray:251 253;stroke-dashoffset:252;animation:gKRKSdkq_draw 2000ms ease-out 0ms forwards;}.gKRKSdkq_11{stroke-dasharray:285 287;stroke-dashoffset:286;animation:gKRKSdkq_draw 2000ms ease-out 0ms forwards;}.gKRKSdkq_12{stroke-dasharray:80 82;stroke-dashoffset:81;animation:gKRKSdkq_draw 2000ms ease-out 0ms forwards;}.gKRKSdkq_13{stroke-dasharray:159 161;stroke-dashoffset:160;animation:gKRKSdkq_draw 2000ms ease-out 0ms forwards;}.gKRKSdkq_14{stroke-dasharray:467 469;stroke-dashoffset:468;animation:gKRKSdkq_draw 2000ms ease-out 0ms forwards;}@keyframes gKRKSdkq_draw{100%{stroke-dashoffset:0;}}@keyframes gKRKSdkq_fade{0%{stroke-opacity:1;}93.54838709677419%{stroke-opacity:1;}100%{stroke-opacity:0;}}</style>
</svg>
