<!--?xml version="1.0" encoding="UTF-8" standalone="no"?-->
<svg xmlns:dc="http://purl.org/dc/elements/1.1/" xmlns:cc="http://creativecommons.org/ns#" xmlns:rdf="http://www.w3.org/1999/02/22-rdf-syntax-ns#" xmlns:svg="http://www.w3.org/2000/svg" xmlns="http://www.w3.org/2000/svg" id="svg8" version="1.1" viewBox="0 0 40 40" height="40mm" width="40mm" style="">
  <defs id="defs2">
    <marker orient="auto" refY="0" refX="0" id="marker1159" style="overflow:visible">
      <path id="path1157" d="M 0,0 5,-5 -12.5,0 5,5 Z" style="fill:#ffffff;fill-opacity:1;fill-rule:evenodd;stroke:#ffffff;stroke-width:1pt;stroke-opacity:1" transform="matrix(0.8,0,0,0.8,10,0)" class="pPUHLCpe_0"></path>
    </marker>
    <marker orient="auto" refY="0" refX="0" id="Arrow1Lstart" style="overflow:visible">
      <path id="path875" d="M 0,0 5,-5 -12.5,0 5,5 Z" style="fill:#ffffff;fill-opacity:1;fill-rule:evenodd;stroke:#ffffff;stroke-width:1pt;stroke-opacity:1" transform="matrix(0.8,0,0,0.8,10,0)" class="pPUHLCpe_1"></path>
    </marker>
  </defs>
  <metadata id="metadata5">
    <rdf:rdf>
      <cc:work rdf:about="">
        <dc:format>image/svg+xml</dc:format>
        <dc:type rdf:resource="http://purl.org/dc/dcmitype/StillImage"></dc:type>
        <dc:title></dc:title>
      </cc:work>
    </rdf:rdf>
  </metadata>
  <g transform="translate(0,-257)" id="layer1">
    <g id="layer1-7" transform="matrix(0.2645833,0,0,0.2645833,-4.077633,86.74653)">
      <g id="g1258" transform="translate(-6.418896,10.62103)">
        <path style="fill: none; fill-opacity: 0.828829; stroke: rgb(255, 255, 255); stroke-width: 1.99628; stroke-linecap: butt; stroke-linejoin: miter; stroke-miterlimit: 4; stroke-opacity: 1;" d="M 156.4,748.594 C 136.7394,714.5489 117.0785,680.5049 97.41784,646.4607 l -9.42806,16.3268 32.67632,56.6887 h 0.087 c 3.2862,0 5.9502,2.6414 5.9501,5.8997 0,3.2577 -2.6641,5.8987 -5.9501,5.8987 -3.2861,0 -5.95,-2.641 -5.9501,-5.8987 0,-0.373 0.037,-0.7449 0.1085,-1.1109 L 83.72789,670.1723 25.25347,771.4317 h 18.71626 l 33.40166,-57.8961 c -0.24923,-0.659 -0.3763,-1.3564 -0.37895,-2.0603 2.6e-4,-3.258 2.66435,-5.899 5.95068,-5.8989 3.2862,0 5.95004,2.6411 5.95004,5.8989 0,2.9617 -2.22155,5.4617 -5.1842,5.8431 L 52.48875,771.4317 H 169.5884 l -8.9361,-15.473 -67.47352,0.247 c -1.12144,1.1727 -2.67911,1.8381 -4.30896,1.8408 -3.28608,0 -5.95005,-2.6409 -5.95005,-5.8988 -2.5e-4,-3.2581 2.66385,-5.9007 5.95005,-5.8993 1.96476,0 3.80181,0.9662 4.90886,2.5756 L 156.4,748.594" id="path1262" class="pPUHLCpe_2"></path>
        <text xml:space="preserve" style="font-style:normal;font-weight:normal;font-size:4.8586154px;line-height:1.25;font-family:sans-serif;letter-spacing:0px;word-spacing:0px;fill:#000000;fill-opacity:1;stroke:none;stroke-width:0.7287924" x="228.7316" y="928.5854" id="text1276"><tspan style="stroke-width:0.7287924" id="tspan1274" x="228.7316" y="932.8841"></tspan></text>
      </g>
    </g>
  </g>
<style data-made-with="vivus-instant">.pPUHLCpe_0{stroke-dasharray:51 53;stroke-dashoffset:52;animation:pPUHLCpe_draw_0 2300ms ease 0ms infinite,pPUHLCpe_fade 2300ms linear 0ms infinite;}.pPUHLCpe_1{stroke-dasharray:51 53;stroke-dashoffset:52;animation:pPUHLCpe_draw_1 2300ms ease 0ms infinite,pPUHLCpe_fade 2300ms linear 0ms infinite;}.pPUHLCpe_2{stroke-dasharray:883 885;stroke-dashoffset:884;animation:pPUHLCpe_draw_2 2300ms ease 0ms infinite,pPUHLCpe_fade 2300ms linear 0ms infinite;}@keyframes pPUHLCpe_draw{100%{stroke-dashoffset:0;}}@keyframes pPUHLCpe_fade{0%{stroke-opacity:1;}86.95652173913044%{stroke-opacity:1;}100%{stroke-opacity:0;}}@keyframes pPUHLCpe_draw_0{0%{stroke-dashoffset: 52}57.971014492753625%{ stroke-dashoffset: 0;}100%{ stroke-dashoffset: 0;}}@keyframes pPUHLCpe_draw_1{14.492753623188406%{stroke-dashoffset: 52}72.46376811594203%{ stroke-dashoffset: 0;}100%{ stroke-dashoffset: 0;}}@keyframes pPUHLCpe_draw_2{28.985507246376812%{stroke-dashoffset: 884}86.95652173913044%{ stroke-dashoffset: 0;}100%{ stroke-dashoffset: 0;}}</style></svg>
