<!--?xml version="1.0" encoding="UTF-8" standalone="no"?-->
<svg xmlns:dc="http://purl.org/dc/elements/1.1/" xmlns:cc="http://creativecommons.org/ns#" xmlns:rdf="http://www.w3.org/1999/02/22-rdf-syntax-ns#" xmlns:svg="http://www.w3.org/2000/svg" xmlns="http://www.w3.org/2000/svg" id="svg8" version="1.1" viewBox="0 0 264.567 264.5664" height="30mm" width="30mm" style="">
  <defs id="defs2">
    <marker style="overflow:visible" id="marker1159" refX="0" refY="0" orient="auto">
      <path transform="matrix(0.8,0,0,0.8,10,0)" style="fill:#ffffff;fill-opacity:1;fill-rule:evenodd;stroke:#ffffff;stroke-width:1pt;stroke-opacity:1" d="M 0,0 5,-5 -12.5,0 5,5 Z" id="path1157" class="sausZlIh_0"></path>
    </marker>
    <marker style="overflow:visible" id="Arrow1Lstart" refX="0" refY="0" orient="auto">
      <path transform="matrix(0.8,0,0,0.8,10,0)" style="fill:#ffffff;fill-opacity:1;fill-rule:evenodd;stroke:#ffffff;stroke-width:1pt;stroke-opacity:1" d="M 0,0 5,-5 -12.5,0 5,5 Z" id="path875" class="sausZlIh_1"></path>
    </marker>
  </defs>
  <metadata id="metadata5">
    <rdf:rdf>
      <cc:work rdf:about="">
        <dc:format>image/svg+xml</dc:format>
        <dc:type rdf:resource="http://purl.org/dc/dcmitype/StillImage"></dc:type>
        <dc:title></dc:title>
      </cc:work>
    </rdf:rdf>
  </metadata>
  <g transform="translate(0,-588.3391)" id="layer1">
    <g transform="translate(-6.418896,10.62103)" id="g1258">
      <path style="fill: none; fill-opacity: 0.472973; stroke: rgb(255, 255, 255); stroke-width: 2.73916; stroke-linecap: butt; stroke-linejoin: miter; stroke-miterlimit: 4; stroke-opacity: 1;" d="m 119.8994,619.4522 -79.80382,-0.022 39.8136,68.8559 m 40.41972,69.9044 18.9541,32.7808 18.9384,-32.7905 m 39.6812,-68.7057 40.4249,-69.9932 -80.8564,-0.022" id="path1260" class="sausZlIh_2"></path>
      <path id="path1268" d="M 119.7828,619.2502 39.54846,758.1953 h 25.68119 l 45.83155,-79.441 c -0.342,-0.9042 -0.5163,-1.8613 -0.52,-2.827 3e-4,-4.4706 3.6558,-8.0943 8.1651,-8.0941 4.5091,0 8.1643,3.6239 8.1643,8.0941 0,4.0638 -3.0483,7.4941 -7.1134,8.0174 l -42.83833,74.2506" style="fill: none; fill-opacity: 0.828829; stroke: rgb(255, 255, 255); stroke-width: 2.73916; stroke-linecap: butt; stroke-linejoin: miter; stroke-miterlimit: 4; stroke-opacity: 1;" class="sausZlIh_3"></path>
      <path id="path1266" d="M 76.91887,758.1953 H 237.595 l -12.2614,-21.231 -92.5826,0.3389 c -1.5388,1.6093 -3.676,2.5222 -5.9124,2.5259 -4.5089,0 -8.1643,-3.6237 -8.1643,-8.094 -4e-4,-4.4704 3.6551,-8.0965 8.1643,-8.0947 2.6959,0 5.2166,1.3258 6.7356,3.5342 l 85.9247,-0.3157" style="fill: none; fill-opacity: 0.828829; stroke: rgb(255, 255, 255); stroke-width: 2.73916; stroke-linecap: butt; stroke-linejoin: miter; stroke-miterlimit: 4; stroke-opacity: 1;" class="sausZlIh_4"></path>
      <path id="path1262" d="M 219.4989,726.8589 C 192.5218,680.1446 165.5445,633.4317 138.5675,586.7186 l -12.9365,22.4025 44.8362,77.7844 c 0.04,0 0.078,0 0.1192,0 4.5092,0 8.1647,3.6244 8.1645,8.0951 0,4.4701 -3.6556,8.0939 -8.1645,8.0939 -4.5089,0 -8.164,-3.6238 -8.1643,-8.0939 0,-0.5118 0.051,-1.022 0.1494,-1.5242 l -42.7883,-74.2225" style="fill: none; fill-opacity: 0.828829; stroke: rgb(255, 255, 255); stroke-width: 2.73916; stroke-linecap: butt; stroke-linejoin: miter; stroke-miterlimit: 4; stroke-opacity: 1;" class="sausZlIh_5"></path>
      <g transform="matrix(0.3731313,0,0,0.3731313,-10.90793,492.1984)" id="text1272" style="font-style:normal;font-variant:normal;font-weight:normal;font-stretch:normal;font-size:6.6666665px;line-height:1.25;font-family:Squaresharps;-inkscape-font-specification:'Squaresharps, Normal';font-variant-ligatures:normal;font-variant-caps:normal;font-variant-numeric:normal;font-feature-settings:normal;text-align:start;letter-spacing:0px;word-spacing:0px;writing-mode:lr-tb;text-anchor:start;fill:none;fill-opacity:1;stroke:#ffffff;stroke-width:5.2930446;stroke-miterlimit:4;stroke-dasharray:none" aria-label="atreya'19">
        <path style="fill: none; stroke: rgb(255, 255, 255); stroke-width: 5.29304; stroke-miterlimit: 4;" id="path1278" d="m 167.4361,918.5561 -26.3803,-65.9438 h -13.187 l -26.3802,65.9438 h 15.0451 l 17.9287,-46.1603 17.9286,46.1603 z" class="sausZlIh_6"></path>
        <path style="fill: none; stroke: rgb(255, 255, 255); stroke-width: 5.29304; stroke-miterlimit: 4;" id="path1299" d="m 174.111,864.3051 h 26.377 v 52.7575 h 13.1901 v -52.7575 h 13.1902 l 13.1869,-13.1869 h -52.7541 z" class="sausZlIh_7"></path>
        <path style="fill: none; stroke: rgb(255, 255, 255); stroke-width: 5.29304; stroke-miterlimit: 4;" id="path1329" d="m 269.4807,877.8687 34.8286,39.5673 h 16.2795 l -23.2876,-26.377 h 23.2876 v -39.5673 h -65.9443 v 65.9443 h 13.187 v -52.7574 h 39.5672 v 13.1901 z" class="sausZlIh_8"></path>
        <path style="fill: none; stroke: rgb(255, 255, 255); stroke-width: 5.29304; stroke-miterlimit: 4;" id="path1284" d="m 348.367,865.4257 h 39.5672 l 13.1901,-13.1902 h -65.9474 v 65.9473 h 52.7573 l 13.1901,-13.1904 H 348.367 v -13.1891 h 39.5672 l 13.1901,-13.1874 H 348.367 Z" class="sausZlIh_9"></path>
        <path style="fill: none; stroke: rgb(255, 255, 255); stroke-width: 5.29304; stroke-miterlimit: 4;" id="path1321" d="m 455.2788,917.8094 v -26.377 l 26.3772,-39.5672 h -16.2796 l -16.691,23.0788 -16.4885,-23.0788 h -16.4853 l 26.3771,39.5672 v 26.377 z" class="sausZlIh_10"></path>
        <path style="fill: none; stroke: rgb(255, 255, 255); stroke-width: 5.29304; stroke-miterlimit: 4;" id="path1288" d="m 550.3202,918.81 -26.377,-65.9445 H 510.7531 L 484.376,918.81 h 15.0418 l 17.9288,-46.161 17.9287,46.161 z" class="sausZlIh_11"></path>
        <path style="fill: none; stroke: rgb(255, 255, 255); stroke-width: 5.29304; stroke-miterlimit: 4;" id="path1313" d="m 588.2542,877.758 v -26.377 h -13.187 v 26.377 z" class="sausZlIh_12"></path>
        <path style="fill: none; stroke: rgb(255, 255, 255); stroke-width: 5.29304; stroke-miterlimit: 4;" id="path1309" d="m 607.7244,850.7447 v 65.9445 h 13.1901 v -65.9445 z" class="sausZlIh_13"></path>
        <path style="fill: none; stroke: rgb(255, 255, 255); stroke-width: 5.29304; stroke-miterlimit: 4;" id="path1305" d="m 635.7856,850.3902 v 39.5671 h 52.7384 v 13.1682 h -39.5673 l -13.1711,13.1706 h 65.9063 v -65.9059 z m 13.1711,13.1679 h 39.5673 v 13.1712 h -39.5673 z" class="sausZlIh_14"></path>
      </g>
      <text id="text1276" y="973.8312" x="318.7474" style="font-style:normal;font-weight:normal;font-size:6.6666665px;line-height:1.25;font-family:sans-serif;letter-spacing:0px;word-spacing:0px;fill:#000000;fill-opacity:1;stroke:none" xml:space="preserve"><tspan y="979.7296" x="318.7474" id="tspan1274"></tspan></text>
    </g>
  </g>
<style data-made-with="vivus-instant">.sausZlIh_0{stroke-dasharray:51 53;stroke-dashoffset:52;animation:sausZlIh_draw 2000ms ease-out 0ms forwards;}.sausZlIh_1{stroke-dasharray:51 53;stroke-dashoffset:52;animation:sausZlIh_draw 2000ms ease-out 0ms forwards;}.sausZlIh_2{stroke-dasharray:397 399;stroke-dashoffset:398;animation:sausZlIh_draw 2000ms ease-out 0ms forwards;}.sausZlIh_3{stroke-dasharray:404 406;stroke-dashoffset:405;animation:sausZlIh_draw 2000ms ease-out 0ms forwards;}.sausZlIh_4{stroke-dasharray:404 406;stroke-dashoffset:405;animation:sausZlIh_draw 2000ms ease-out 0ms forwards;}.sausZlIh_5{stroke-dasharray:404 406;stroke-dashoffset:405;animation:sausZlIh_draw 2000ms ease-out 0ms forwards;}.sausZlIh_6{stroke-dasharray:285 287;stroke-dashoffset:286;animation:sausZlIh_draw 2000ms ease-out 0ms forwards;}.sausZlIh_7{stroke-dasharray:249 251;stroke-dashoffset:250;animation:sausZlIh_draw 2000ms ease-out 0ms forwards;}.sausZlIh_8{stroke-dasharray:456 458;stroke-dashoffset:457;animation:sausZlIh_draw 2000ms ease-out 0ms forwards;}.sausZlIh_9{stroke-dasharray:452 454;stroke-dashoffset:453;animation:sausZlIh_draw 2000ms ease-out 0ms forwards;}.sausZlIh_10{stroke-dasharray:251 253;stroke-dashoffset:252;animation:sausZlIh_draw 2000ms ease-out 0ms forwards;}.sausZlIh_11{stroke-dasharray:285 287;stroke-dashoffset:286;animation:sausZlIh_draw 2000ms ease-out 0ms forwards;}.sausZlIh_12{stroke-dasharray:80 82;stroke-dashoffset:81;animation:sausZlIh_draw 2000ms ease-out 0ms forwards;}.sausZlIh_13{stroke-dasharray:159 161;stroke-dashoffset:160;animation:sausZlIh_draw 2000ms ease-out 0ms forwards;}.sausZlIh_14{stroke-dasharray:467 469;stroke-dashoffset:468;animation:sausZlIh_draw 2000ms ease-out 0ms forwards;}@keyframes sausZlIh_draw{100%{stroke-dashoffset:0;}}@keyframes sausZlIh_fade{0%{stroke-opacity:1;}93.54838709677419%{stroke-opacity:1;}100%{stroke-opacity:0;}}</style></svg>
